<svg width="57" height="37" viewBox="0 0 57 37" fill="none" xmlns="http://www.w3.org/2000/svg">
<path d="M0.725037 26C0.725037 23.525 1.50004 21.3 3.05004 19.375C4.60004 17.45 6.57504 16.2 9.00004 15.65C9.65004 12.725 11.125 10.3 13.45 8.44998C15.775 6.57498 18.45 5.64998 21.5 5.64998C24.45 5.64998 27.1 6.54998 29.4 8.37498C31.725 10.2 33.225 12.525 33.9 15.375H34.575C37.525 15.375 40.025 16.4 42.1 18.475C44.175 20.55 45.225 23.05 45.225 25.975C45.225 28.925 44.175 31.425 42.1 33.5C40.025 35.575 37.525 36.625 34.575 36.625H11.4C9.95004 36.625 8.57504 36.35 7.27504 35.775C5.97504 35.2 4.80004 34.5 3.85004 33.55C2.90004 32.6 2.15004 31.45 1.57504 30.15C1.00004 28.85 0.725037 27.425 0.725037 26ZM4.35004 26C4.35004 27.9 5.05004 29.55 6.40004 30.9C7.75004 32.25 9.42503 32.95 11.375 32.95H34.575C36.5 32.95 38.175 32.275 39.55 30.9C40.925 29.525 41.625 27.9 41.625 26C41.625 24.1 40.95 22.45 39.55 21.1C38.175 19.75 36.525 19.05 34.575 19.05H31.1C30.85 19.05 30.725 18.925 30.725 18.675L30.55 17.45C30.3 15.1 29.3 13.125 27.575 11.575C25.85 10.025 23.8 9.24998 21.45 9.24998C19.1 9.24998 17.05 10.025 15.3 11.6C13.55 13.15 12.575 15.125 12.35 17.45L12.175 18.5C12.175 18.75 12.05 18.875 11.775 18.875L10.65 19.05C8.85004 19.2 7.35004 19.95 6.12504 21.275C4.97504 22.6 4.35004 24.175 4.35004 26ZM26.475 4.19998C26.225 4.42498 26.275 4.59998 26.65 4.72498C27.725 5.19998 28.625 5.64998 29.35 6.09998C29.625 6.17498 29.825 6.14998 29.9 6.02498C31.425 4.59998 33.175 3.87498 35.2 3.87498C37.225 3.87498 38.95 4.54998 40.45 5.89998C41.925 7.24998 42.75 8.92498 42.925 10.9L43.15 12.5H46.7C48.325 12.5 49.725 13.075 50.9 14.25C52.075 15.425 52.65 16.8 52.65 18.4C52.65 19.9 52.125 21.2 51.1 22.325C50.075 23.45 48.8 24.075 47.275 24.25C47.025 24.25 46.9 24.375 46.9 24.65V27.475C46.9 27.75 47.025 27.875 47.275 27.875C49.8 27.725 51.925 26.725 53.65 24.9C55.375 23.075 56.25 20.9 56.25 18.4C56.25 15.75 55.325 13.5 53.45 11.65C51.575 9.77498 49.325 8.84998 46.7 8.84998H46.325C45.675 6.34998 44.3 4.29998 42.2 2.67498C40.125 1.04998 37.775 0.249981 35.2 0.249981C31.7 0.224981 28.775 1.54998 26.475 4.19998Z"/>
</svg>
