<svg width="20" height="20" viewBox="0 0 20 20" fill="none" xmlns="http://www.w3.org/2000/svg">
<path d="M1 9.80851L0.292893 9.1014C-0.0976311 9.49193 -0.0976311 10.1251 0.292893 10.5156L1 9.80851ZM19 10.8085C19.5523 10.8085 20 10.3608 20 9.80851C20 9.25623 19.5523 8.80851 19 8.80851V10.8085ZM9.1014 19.3241C9.49193 19.7147 10.1251 19.7147 10.5156 19.3241C10.9061 18.9336 10.9061 18.3004 10.5156 17.9099L9.1014 19.3241ZM10.5156 1.70711C10.9061 1.31658 10.9061 0.683417 10.5156 0.292893C10.1251 -0.0976311 9.49193 -0.0976311 9.1014 0.292893L10.5156 1.70711ZM1 10.8085H19V8.80851H1V10.8085ZM0.292893 10.5156L9.1014 19.3241L10.5156 17.9099L1.70711 9.1014L0.292893 10.5156ZM1.70711 10.5156L10.5156 1.70711L9.1014 0.292893L0.292893 9.1014L1.70711 10.5156Z" fill="#57534E"/>
</svg>
