<svg width="30" height="30" viewBox="0 0 30 30" fill="none" xmlns="http://www.w3.org/2000/svg">
<path d="M6 14.8085L5.29289 14.1014C4.90237 14.4919 4.90237 15.1251 5.29289 15.5156L6 14.8085ZM24 15.8085C24.5523 15.8085 25 15.3608 25 14.8085C25 14.2562 24.5523 13.8085 24 13.8085V15.8085ZM14.1014 24.3241C14.4919 24.7147 15.1251 24.7147 15.5156 24.3241C15.9061 23.9336 15.9061 23.3004 15.5156 22.9099L14.1014 24.3241ZM15.5156 6.70711C15.9061 6.31658 15.9061 5.68342 15.5156 5.29289C15.1251 4.90237 14.4919 4.90237 14.1014 5.29289L15.5156 6.70711ZM6 15.8085H24V13.8085H6V15.8085ZM5.29289 15.5156L14.1014 24.3241L15.5156 22.9099L6.70711 14.1014L5.29289 15.5156ZM6.70711 15.5156L15.5156 6.70711L14.1014 5.29289L5.29289 14.1014L6.70711 15.5156Z" fill="#57534E"/>
</svg>
